<svg id="master-artboard" viewBox="0 0 1600 1400" data-name="Layer 1" xmlns="http://www.w3.org/2000/svg" width="1600px" height="1400px"><title>Earth Structure2</title>
  <path d="M 0 -2.97 H 1600 V 1402.369966 H 0 V -2.97 Z" id="background" class="cls-1" style="fill: rgb(0, 54, 73);"/>
  <path d="M 464.42999267578125 314.2900085449219 L 303.75 401.75 L 336.42999267578125  270.4700012207031 L 464.42999267578125 314.2900085449219 Z" class="cls-2" style="fill: rgb(255, 255, 255);"/>
  <path d="M 340.3599853515625 381.82000732421875 L 372.010009765625 302.7900085449219 L 341.19000244140625 337.2900085449219 L 336.42999267578125 270.4700012207031 L 464.42999267578125 314.2900085449219 L 340.3599853515625 381.82000732421875 Z" class="cls-3" style="fill: rgb(194, 196, 198);"/>
  <path d="M 384.0899963378906 358.0199890136719 L 167.2100067138672 476.07000732421875 L 211.32000732421875 298.8699951171875 L 384.0899963378906 358.0199890136719 Z" class="cls-2" style="fill: rgb(255, 255, 255);"/>
  <path d="M 216.6300048828125 449.1700134277344 L 259.3500061035156 342.5 L 217.75 389.05999755859375 L 211.32000732421875 298.8699951171875 L 384.0899963378906 358.0199890136719 L 216.6300048828125 449.1700134277344 Z" class="cls-3" style="fill: rgb(194, 196, 198);"/>
  <path d="M 1061.1600341796875 323.2699890136719 L 927.6300048828125 298.55999755859375 L 1007.8599853515625 238.16000366210938 L 1061.1600341796875 323.2699890136719 Z" class="cls-4" style="fill: rgb(55, 142, 67);"/>
  <path d="M 958.0599975585938 304.19000244140625 L 1013.260009765625 273.42999267578125 L 979.3599853515625 278.9100036621094 L 1007.8599853515625 238.16000366210938 L 1061.1600341796875 323.2699890136719 L 958.0599975585938 304.19000244140625 Z" class="cls-5" style="fill: rgb(30, 95, 48);"/>
  <path d="M 1471.510009765625 524.1099853515625 L 1347.6700439453125 446.3399963378906 L 1451.969970703125 417.75 L 1471.510009765625 524.1099853515625 Z" class="cls-2" style="fill: rgb(255, 255, 255);"/>
  <path d="M 1375.8900146484375 464.05999755859375 L 1443.3599853515625 455.19000244140625 L 1407.260009765625 447.2099914550781 L 1451.969970703125 417.75 L 1471.510009765625 524.1099853515625 L 1375.8900146484375 464.05999755859375 Z" class="cls-3" style="fill: rgb(194, 196, 198);"/>
  <path d="M 1409.5899658203125 485.2200012207031 L 1242.4300537109375 380.25 L 1383.2099609375 341.6600036621094 L 1409.5899658203125 485.2200012207031 Z" class="cls-2" style="fill: rgb(255, 255, 255);"/>
  <path d="M 1280.52001953125 404.1700134277344 L 1371.5899658203125 392.20001220703125 L 1322.8599853515625 381.42999267578125 L 1383.2099609375 341.6600036621094 L 1409.5899658203125 485.2200012207031 L 1280.52001953125 404.1700134277344 Z" class="cls-3" style="fill: rgb(194, 196, 198);"/>
  <path class="cls-4" d="M516.81,326.21c16,31.83-52.55,98.69-153.17,149.34S155.82,581.08,139.8,549.25s65.2-138.33,165.82-189S500.79,294.38,516.81,326.21Z" style="fill: rgb(55, 142, 67);"/>
  <path class="cls-4" d="M1333.63,406.62c-84.62-33.06-154.1-51.71-161.16-12.06s55.81,98.59,140.43,131.66,162,67.64,169.11,28S1418.25,439.69,1333.63,406.62Z" style="fill: rgb(55, 142, 67);"/>
  <path class="cls-6" d="M1502.93,574.53q6.49,6.5,12.86,13.1L806.55,1296.87,84.21,574.54C476,182.77,1111.15,182.75,1502.93,574.53Z" style="fill: rgb(0, 172, 193);"/>
  <path class="cls-7" d="M1475.51,601.94q6.49,6.51,12.84,13.13l-681.8,681.8L111.63,602c92.07-92.07,199.4-163.38,319-211.87a968,968,0,0,1,725.86,0C1276.11,438.6,1383.44,509.87,1475.51,601.94Z" style="fill: rgb(141, 110, 99);"/>
  <path class="cls-8" d="M1332.36,745.1q6.5,6.49,12.83,13.13L806.55,1296.87,254.77,745.1a761.33,761.33,0,0,1,1077.59,0Z" style="fill: rgb(247, 143, 30);"/>
  <path class="cls-9" d="M1257.82,819.64q6.5,6.5,12.8,13.16L806.55,1296.87,329.32,819.65a656,656,0,0,1,928.5,0Z" style="fill: rgb(248, 149, 45);"/>
  <path class="cls-10" d="M1140.49,937q6.52,6.52,12.74,13.23L806.55,1296.87,446.63,937a490.2,490.2,0,0,1,693.86,0Z" style="fill: rgb(229, 83, 37);"/>
  <path class="cls-11" d="M1007.72,1069.74q6.51,6.51,12.6,13.36L806.55,1296.87,579.42,1069.75a302.62,302.62,0,0,1,428.3,0Z" style="fill: rgb(190, 58, 38);"/>
  <path class="cls-12" d="M84.21,574.54l711.51,711.51,239-976.06C705,228.64,341.93,316.82,84.21,574.54Z" style="fill: rgb(103, 188, 205);"/>
  <path class="cls-6" d="M1515.79,587.63q-6.36-6.6-12.86-13.1C1368.87,440.47,1206.31,352.3,1034.76,310L806.55,1296.87Z" style="fill: rgb(0, 172, 193);"/>
  <path class="cls-7" d="M793.58,319.48a961.32,961.32,0,0,0-362.93,70.61C311,438.58,203.7,509.89,111.63,602l684.09,684.09,229.84-938.48A964.67,964.67,0,0,0,793.58,319.48Z" style="fill: rgb(141, 110, 99);"/>
  <path class="cls-7" d="M1488.35,615.06q-6.33-6.62-12.84-13.12c-92.07-92.07-199.4-163.34-319-211.85a963.19,963.19,0,0,0-131-42.52l-219,949.3Z" style="fill: rgb(141, 110, 99);"/>
  <path class="cls-13" d="M793.56,521.92A759.57,759.57,0,0,0,254.77,745.1l541,540.95,181.67-741.8A762.64,762.64,0,0,0,793.56,521.92Z" style="fill: rgb(249, 161, 69);"/>
  <path class="cls-8" d="M1345.19,758.23q-6.33-6.62-12.83-13.13a759.63,759.63,0,0,0-355-200.85L806.55,1296.87Z" style="fill: rgb(247, 143, 30);"/>
  <path class="cls-14" d="M793.56,627.35a654.23,654.23,0,0,0-464.24,192.3l466.4,466.4L952.31,646.67A655.89,655.89,0,0,0,793.56,627.35Z" style="fill: rgb(250, 165, 78);"/>
  <path class="cls-9" d="M1270.62,832.8q-6.28-6.66-12.8-13.16a654.32,654.32,0,0,0-305.51-173l-145.76,650.2Z" style="fill: rgb(248, 149, 45);"/>
  <path class="cls-15" d="M793.56,793.26A489.18,489.18,0,0,0,446.63,937l349.09,349.09L912.83,807.86A490.79,490.79,0,0,0,793.56,793.26Z" style="fill: rgb(235, 130, 84);"/>
  <path class="cls-10" d="M1153.23,950.19q-6.23-6.72-12.74-13.23a488.88,488.88,0,0,0-227.66-129.1l-106.28,489Z" style="fill: rgb(229, 83, 37);"/>
  <path class="cls-16" d="M793.58,981a301.9,301.9,0,0,0-214.16,88.71l227.13,227.12,61.6-306.56A303.34,303.34,0,0,0,793.58,981Z" style="fill: rgb(198, 91, 60);"/>
  <path class="cls-11" d="M907.53,1003.22a302.48,302.48,0,0,0-39.38-12.91l-61.6,306.56,213.77-213.77q-6.08-6.84-12.6-13.36A300.72,300.72,0,0,0,907.53,1003.22Z" style="fill: rgb(190, 58, 38);"/>
  <path class="cls-2" d="M599.34,764.91c2-.72,4.75-1.57,8.36-2.57a47.84,47.84,0,0,0,1.87,4.92c.57,1.24,1,2.15,1.23,2.74a12.78,12.78,0,0,0,.53,1.18l-2.48.6a95,95,0,0,0-16.19,6.09,50.76,50.76,0,0,0-4.58,2.63q-2.16-15.22-3.49-32.3t-2.16-28.75l13.78-5.85q1.24,33.35,2,40.84T599.34,764.91Z" style="fill: rgb(255, 255, 255);"/>
  <path class="cls-2" d="M645.59,721.11a48.7,48.7,0,0,1,1,11.17,54.09,54.09,0,0,1-1.34,11.8,47.36,47.36,0,0,1-3.56,10.2,43.32,43.32,0,0,1-5.13,8.17q-5.88,7.26-12.47,8.75a10.89,10.89,0,0,1-9.68-2q-4.53-3.61-6.45-12.06a60.37,60.37,0,0,1,7-41q5.76-9.25,14-11.11,6.75-1.53,11.12,3.23Q643.55,712.11,645.59,721.11Zm-10.27,7.65q-1.52-6.68-5.37-5.8-4.91,1.11-7.75,6.83a34.61,34.61,0,0,0-3,11.76,34.11,34.11,0,0,0,.56,10.69,5.39,5.39,0,0,0,3.83,4.21,3.22,3.22,0,0,0,2,.14,9.83,9.83,0,0,0,6-4,22.2,22.2,0,0,0,3.38-7.31,35.8,35.8,0,0,0,1.14-8.59A34.54,34.54,0,0,0,635.32,728.76Z" style="fill: rgb(255, 255, 255);"/>
  <path class="cls-2" d="M663.5,700.78q0,.16-.11,37.73l1.3-.2q1-9,2-16.8t1.42-10.7q.66-6.43,1.14-9.77l.73-.12a40.24,40.24,0,0,0,8.63-2.43,30.48,30.48,0,0,0,.12,3.11c.1,1.57.22,3.47.34,5.71s.29,4.68.49,7.35.38,5.29.56,7.88q.51,7,.81,13.22l1.55-.24,2.3-37.08q2.79-.84,5.35-1.58,6.69-2,9.46-3-1.78,10-2.84,21.3Q694.3,742,693.51,754l-18.32,6.12-1.36-32.75-1.06.16L669.27,759l-16.87,5.81-2.9-60.22a55,55,0,0,0,7.25-1.92A67.62,67.62,0,0,1,663.5,700.78Z" style="fill: rgb(255, 255, 255);"/>
  <path class="cls-2" d="M699,757.66l5.19-60.82L730.57,692q-.39,1.95-.63,3.75c-.16,1.2-.32,2.39-.49,3.57s-.28,2.21-.36,3.1c-1.62.32-3.86.62-6.7.9l-5.66.55-1.49,15.38c3-.45,5.5-.81,7.52-1.06s3.32-.43,3.92-.54c-.06,1.6-.12,3.17-.16,4.69s-.13,3.09-.25,4.71c-.6.11-1.52.24-2.78.39s-2.56.32-3.93.51l-4.58.61-1.36,15.79,12-3.16.11,9.68Z" style="fill: rgb(255, 255, 255);"/>
  <path class="cls-2" d="M752,752.22q-7.42-22.1-7.83-25.13l-1.05.39q-2,15.28-2.91,23.17l-13.5,4.21q6.54-41.85,7.58-59.31a71.88,71.88,0,0,1,21.27-4q8.89-.43,10.84,5.66a18.88,18.88,0,0,1,.72,4.67,18.34,18.34,0,0,1-.85,6.11,28.53,28.53,0,0,1-12.51,16.09q3.56,6.75,6.37,12.77T764.89,747Zm-1.55-48.71-3.62.26-2.06,13.55q3.27-.48,8.11-4.6,5-4.22,4.87-6.76c-.08-1.59-1.63-2.43-4.66-2.5C752.22,703.45,751.34,703.47,750.47,703.51Z" style="fill: rgb(255, 255, 255);"/>
  <path class="cls-2" d="M810.3,724.23q10.47-25.08,13.77-31.39c2.81-.22,5.12-.43,6.91-.64l4.6-.52c1.27-.14,2.65-.32,4.15-.54q-5,23.73-9.11,60l-14.85,2.06c.08-2,.45-5.15,1.12-9.53l1.53-9.84c.75-5,1.42-8.83,2-11.55l-.74,0q-1.29,3.49-2.88,7.35c-1.07,2.57-2.15,5.19-3.24,7.84l-3.23,7.83c-1.07,2.58-2,5-2.81,7.36-2,0-3.66,0-5,0l-5,.06,3.94-31.2-1.23,0c-.14.71-.48,1.92-1,3.63s-1.13,3.67-1.8,5.87-1.38,4.49-2.16,6.85-1.51,4.55-2.2,6.55q-1.68,5.22-2.42,7.25l-14,.37q15-40,20.52-58.61a75.08,75.08,0,0,0,8.83-.15q4.14-.33,8.94-.56c-.21,1.2-.45,2.57-.7,4.1s-.53,3.14-.85,4.83-.64,3.43-1,5.2-.78,4.07-1.3,6.88-1.2,6.33-2,10.53Z" style="fill: rgb(255, 255, 255);"/>
  <path class="cls-2" d="M848.16,742.1l-4.61,11.71-4.45.12c-1.69,0-3.37.08-5,.1l-5.14.08q4.52-10.8,7.65-18.27t5.13-12.27q2-4.82,3.93-9.54t3.77-9.14q1.83-4.41,3.28-8.08a203.93,203.93,0,0,0,23.4-.22q-1.58,8-3.22,19.06-3.36,22-6,40.49c-1.67.11-3.3.19-4.88.24s-3.22.14-4.91.24l-4.63.26q1.71-7.77,3-14Zm2.84-8.16,6.11.22c0-.33.13-.88.29-1.67s.36-1.69.58-2.72q1.56-8.7,3.08-16.17l1.34-7.24-1.33-.05Z" style="fill: rgb(255, 255, 255);"/>
  <path class="cls-2" d="M902.47,759.53a54.67,54.67,0,0,0-6.94.32q-6,.46-7.16.69.84-11.06,1-16.16c.13-3.4.21-6,.26-7.68.16-2.36.23-5.25.21-8.65-.32,1-.74,2.21-1.24,3.61s-1,2.91-1.56,4.55q-2.55,7.6-7.65,21.82l-12.67.9Q883,715.36,887.2,699.82c1.75.17,3.4.31,4.94.42s3.08.24,4.61.4,2.88.28,4,.35q0,6.6,0,10.9t0,7.05c0,1.84,0,3.62,0,5.35q0,5.1.31,9.07c.39-1.11.85-2.4,1.36-3.88s1.07-3,1.67-4.7,1.23-3.34,1.89-5,1.5-3.91,2.52-6.61,2.29-6.11,3.84-10.2l10.37.4Q907.36,742.53,902.47,759.53Z" style="fill: rgb(255, 255, 255);"/>
  <path class="cls-2" d="M922.22,717.69l2.64-10.48c2.75.8,5.55,1.51,8.41,2.11a176,176,0,0,0,22.31,3.3l-1.83,4.24c-.53,1.19-1.06,2.41-1.58,3.67s-1,2.36-1.41,3.29a27.49,27.49,0,0,1-3.86-.1c-1.26-.13-2.51-.21-3.74-.25q-2.76,5.91-6.16,14.79-7.54,19.65-10.79,28.65l-15.34-.81q13-29.26,19-46.13a24.58,24.58,0,0,0-3.84-1A12.24,12.24,0,0,1,922.22,717.69Z" style="fill: rgb(255, 255, 255);"/>
  <path class="cls-2" d="M951.3,763.17q3.11.54,8.53,1.93a49.86,49.86,0,0,0-.81,5.19c-.13,1.36-.22,2.36-.3,3a12.42,12.42,0,0,0-.12,1.29l-2.45-.71a95.29,95.29,0,0,0-17.09-2.75,48.4,48.4,0,0,0-5.27,0q5.69-14.29,13-29.79t12.39-26l14.87,1.76q-15.46,29.56-18.54,36.45T951.3,763.17Z" style="fill: rgb(255, 255, 255);"/>
  <path class="cls-2" d="M957.69,777.13l27.75-54.36,26.26,5.42c-.74,1.1-1.4,2.18-2,3.23s-1.2,2.1-1.79,3.12-1.1,1.94-1.51,2.74c-1.62-.31-3.81-.88-6.55-1.7L994.4,734l-7.18,13.69c2.94.7,5.4,1.32,7.36,1.85s3.25.85,3.84,1l-1.92,4.29c-.62,1.39-1.28,2.82-2,4.26-.6-.12-1.51-.34-2.72-.68s-2.5-.67-3.83-1l-4.47-1.16-7.22,14.1,12.33,1.62-3.54,9Z" style="fill: rgb(255, 255, 255);"/>
  <path class="cls-17" d="M182.6,578.65c-9.48,0-9.49,14.74,0,14.74S192.1,578.65,182.6,578.65Z" style="fill: rgb(99, 77, 69);"/>
  <path class="cls-17" d="M227.64,619.59c-10.13,0-10.14,15.74,0,15.74S237.79,619.59,227.64,619.59Z" style="fill: rgb(99, 77, 69);"/>
  <path class="cls-17" d="M278.09,649.71c-10.78,0-10.8,16.75,0,16.75S288.89,649.71,278.09,649.71Z" style="fill: rgb(99, 77, 69);"/>
  <path class="cls-17" d="M306.15,572.37l-1.33-1a6.53,6.53,0,0,0-3.31-.9c-.33,0-.66-.07-1-.08a2.14,2.14,0,0,0-1,.11c-.36,0-.71.09-1.06.15a7.66,7.66,0,0,0-1.85.83,6.44,6.44,0,0,0,0,11.11,7,7,0,0,0,3.88,1.09l1-.09A4.9,4.9,0,0,0,304,583a5,5,0,0,0,2.11-1.36,6.57,6.57,0,0,0,0-9.28Z" style="fill: rgb(99, 77, 69);"/>
  <path class="cls-17" d="M227.64,541c-6.88,0-6.89,10.69,0,10.69S234.54,541,227.64,541Z" style="fill: rgb(99, 77, 69);"/>
  <path class="cls-17" d="M323.13,603.67c-9.74,0-9.76,15.14,0,15.14S332.89,603.67,323.13,603.67Z" style="fill: rgb(99, 77, 69);"/>
  <path class="cls-17" d="M361,573.35c-9.35,0-9.36,14.53,0,14.53S370.33,573.35,361,573.35Z" style="fill: rgb(99, 77, 69);"/>
  <path class="cls-17" d="M297.91,508.51c-7,0-7,10.9,0,10.9S304.93,508.51,297.91,508.51Z" style="fill: rgb(99, 77, 69);"/>
  <path class="cls-17" d="M254.72,580.34a9.7,9.7,0,0,0-.78-1.41,3.37,3.37,0,0,0-5.75,0,9.7,9.7,0,0,0-.78,1.41,4.06,4.06,0,0,0-.17,2.77,5.16,5.16,0,0,0,1.19,1.95,3.71,3.71,0,0,0,2.64,1.09,3.66,3.66,0,0,0,2.64-1.09,5.27,5.27,0,0,0,1.18-1.95A4.06,4.06,0,0,0,254.72,580.34Z" style="fill: rgb(99, 77, 69);"/>
  <path class="cls-17" d="M184.41,601.2c-6,0-6,9.28,0,9.28S190.39,601.2,184.41,601.2Z" style="fill: rgb(99, 77, 69);"/>
  <path class="cls-17" d="M330.34,541.94c-5.72,0-5.73,8.88,0,8.88S336.06,541.94,330.34,541.94Z" style="fill: rgb(99, 77, 69);"/>
  <path class="cls-17" d="M355.56,458.74c-10.78,0-10.8,16.75,0,16.75S366.36,458.74,355.56,458.74Z" style="fill: rgb(99, 77, 69);"/>
  <path class="cls-17" d="M418.85,544.35a8,8,0,0,0-7.76-2.05l-1.36.29-1.84.77a5.77,5.77,0,0,0-2.15,2,3.91,3.91,0,0,0-1,1.69,5.78,5.78,0,0,0-.66,3c.09.68.19,1.36.28,2,.25.61.51,1.22.77,1.83a8.55,8.55,0,0,0,4.59,3.53l1.36.29a8,8,0,0,0,7.76-2,8,8,0,0,0,0-11.28Z" style="fill: rgb(99, 77, 69);"/>
  <path class="cls-17" d="M429.43,572.64c-10.26,0-10.28,16,0,16S439.7,572.64,429.43,572.64Z" style="fill: rgb(99, 77, 69);"/>
  <path class="cls-17" d="M452.85,473.55c-10.26,0-10.28,15.95,0,15.95S463.12,473.55,452.85,473.55Z" style="fill: rgb(99, 77, 69);"/>
  <path class="cls-17" d="M407.47,426a7.28,7.28,0,0,0-7-1.84l-1.52.39-1.61.68a5.06,5.06,0,0,0-1.9,1.74,3.36,3.36,0,0,0-.87,1.49,5.11,5.11,0,0,0-.59,2.61,8.2,8.2,0,0,0,.93,3.42,5,5,0,0,0,1.74,1.89,5.08,5.08,0,0,0,2.3,1.22l1.52.38a7.2,7.2,0,0,0,7-1.84,7.49,7.49,0,0,0,2.1-5.07A7.39,7.39,0,0,0,407.47,426Z" style="fill: rgb(99, 77, 69);"/>
  <path class="cls-17" d="M425.48,501.68a7.16,7.16,0,0,0-10.13,0,5.37,5.37,0,0,0-1.48,2.31,5.44,5.44,0,0,0-.62,2.76,7.29,7.29,0,0,0,2.1,5.07,7.18,7.18,0,0,0,10.13,0,7.89,7.89,0,0,0,2.1-5.07A7.23,7.23,0,0,0,425.48,501.68Z" style="fill: rgb(99, 77, 69);"/>
  <path class="cls-17" d="M533.55,493.21a3.52,3.52,0,0,0-.47-1.76,5.22,5.22,0,0,0-1.44-2.24,8.37,8.37,0,0,0-3.08-1.79,5.22,5.22,0,0,0-2.77-.12,5.15,5.15,0,0,0-2.59.83l-1.79,1.13A7.65,7.65,0,0,0,518,493.7a8.77,8.77,0,0,0-.11,3.61,8.3,8.3,0,0,0-2-.23c-10.13,0-10.14,15.74,0,15.74,6,0,8.43-5.47,7.36-10a7,7,0,0,0,.92.13,5.67,5.67,0,0,0,3-.14,8,8,0,0,0,4.44-3.41l1.14-1.79c.23-.55.46-1.11.7-1.66A5.26,5.26,0,0,0,533.55,493.21Z" style="fill: rgb(99, 77, 69);"/>
  <path class="cls-17" d="M534.69,414.47l-.83-2a6.26,6.26,0,0,0-2.13-2.32,6.19,6.19,0,0,0-2.82-1.48l-1.36-.29a8.81,8.81,0,0,0-4.56,0,8.63,8.63,0,0,0-3.78,2.21,8.89,8.89,0,0,0-2.51,6.06,9.57,9.57,0,0,0,2.51,6.06,8.52,8.52,0,0,0,3.78,2.2,8.61,8.61,0,0,0,4.56,0l1.36-.28,2-.84a6.26,6.26,0,0,0,2.32-2.13,4.16,4.16,0,0,0,1.07-1.82,6.36,6.36,0,0,0,.71-3.19Z" style="fill: rgb(99, 77, 69);"/>
  <path class="cls-17" d="M520.25,554.56a3.15,3.15,0,0,0-.43-1.58,4.64,4.64,0,0,0-1.29-2l-.93-.88a5.06,5.06,0,0,0-7,0l-.93.88-1,1.26-.63,1.5a4.69,4.69,0,0,0-.11,2.49,3.09,3.09,0,0,0,.42,1.58,3.12,3.12,0,0,0,.81,1.38,6,6,0,0,0,2.5,1.93,4.77,4.77,0,0,0,2.41.54,7,7,0,0,0,3.16-.85,6.61,6.61,0,0,0,2.24-2.25l.63-1.49A4.73,4.73,0,0,0,520.25,554.56Z" style="fill: rgb(99, 77, 69);"/>
  <path class="cls-17" d="M606,495.91c-4.67,0-4.68,7.27,0,7.27S610.67,495.91,606,495.91Z" style="fill: rgb(99, 77, 69);"/>
  <path class="cls-17" d="M511.62,455.18A4.17,4.17,0,0,0,508.7,454a4.22,4.22,0,0,0-2.93,1.21,4,4,0,0,0-1.21,2.93c.06.54.13,1.08.19,1.62a4.33,4.33,0,0,0,1.16,2.79,4,4,0,0,0,5.58,0l.61-.8a3.89,3.89,0,0,0,.54-2c.07-.54.13-1.08.19-1.62A4.09,4.09,0,0,0,511.62,455.18Z" style="fill: rgb(99, 77, 69);"/>
  <path class="cls-17" d="M470.86,406.4c-8.57,0-8.58,13.33,0,13.33S479.45,406.4,470.86,406.4Z" style="fill: rgb(99, 77, 69);"/>
  <path class="cls-17" d="M602.38,452.24c-9.87,0-9.89,15.34,0,15.34S612.27,452.24,602.38,452.24Z" style="fill: rgb(99, 77, 69);"/>
  <path class="cls-17" d="M580.74,480.81c-.09-.4-.18-.79-.28-1.19l-.72-1.71a5.32,5.32,0,0,0-1.84-2,3.67,3.67,0,0,0-1.58-.92,5.38,5.38,0,0,0-2.76-.62,8.43,8.43,0,0,0-3.62,1,5.27,5.27,0,0,0-2,1.85,5.39,5.39,0,0,0-1.28,2.43c-.1.4-.19.79-.28,1.19a5.66,5.66,0,0,0-.13,3,5.55,5.55,0,0,0,.88,2.77l1.17,1.51a7.41,7.41,0,0,0,3.28,1.91,7.24,7.24,0,0,0,4,0,5.57,5.57,0,0,0,2.53-1.33,5.68,5.68,0,0,0,1.92-2.09A8,8,0,0,0,580.74,480.81Z" style="fill: rgb(99, 77, 69);"/>
  <path class="cls-17" d="M586.86,413.1l-.34-.7a6.68,6.68,0,0,0-11.52,0l-.34.7a7.1,7.1,0,0,0,0,7.13,7.07,7.07,0,1,0,12.2-7.13Z" style="fill: rgb(99, 77, 69);"/>
  <path class="cls-17" d="M605.79,375.43a7.36,7.36,0,0,0-10.42,0,5.35,5.35,0,0,0-1.52,2.37,5.55,5.55,0,0,0-.64,2.84,7.43,7.43,0,0,0,2.16,5.2,7.36,7.36,0,0,0,10.42,0,5.44,5.44,0,0,0,1.52-2.37,5.61,5.61,0,0,0,.64-2.83A7.43,7.43,0,0,0,605.79,375.43Z" style="fill: rgb(99, 77, 69);"/>
  <path class="cls-17" d="M656.7,395.63a7.72,7.72,0,0,0-7.74,0l-1.27.61a7,7,0,0,0,0,12l1.27.61a7.72,7.72,0,0,0,7.74,0,7.68,7.68,0,0,0,0-13.25Z" style="fill: rgb(99, 77, 69);"/>
  <path class="cls-17" d="M655.73,467.81a6.66,6.66,0,0,0-11.37,4.71l.21,3.6a6.8,6.8,0,0,0,1.89,4.57,6.57,6.57,0,0,0,4.56,1.89,6.48,6.48,0,0,0,4.57-1.89,7,7,0,0,0,1.89-4.57l.21-3.6A6.72,6.72,0,0,0,655.73,467.81Z" style="fill: rgb(99, 77, 69);"/>
  <path class="cls-17" d="M645.66,422a5.1,5.1,0,0,0-5-1.33l-1.48.53a4.91,4.91,0,0,0-2.38,1.65,4.37,4.37,0,0,0-1,2.79,5.44,5.44,0,0,0,.63,2.32,4.79,4.79,0,0,0,2.74,2.11l1.48.53a5.07,5.07,0,0,0,5-1.32,5.38,5.38,0,0,0,1.5-3.64A5.31,5.31,0,0,0,645.66,422Z" style="fill: rgb(99, 77, 69);"/>
  <path class="cls-17" d="M708.68,449.14c-9.22,0-9.24,14.33,0,14.33S717.91,449.14,708.68,449.14Z" style="fill: rgb(99, 77, 69);"/>
  <path class="cls-17" d="M724.89,496.18c-9,0-9,13.93,0,13.93S733.87,496.18,724.89,496.18Z" style="fill: rgb(99, 77, 69);"/>
  <path class="cls-17" d="M675.81,487.63c-1.54-2.39-5.28-4-7.87-2.06l-5.25,3.86a6,6,0,0,0-2.51,3.26,5.6,5.6,0,0,0,.55,4.2,5.54,5.54,0,0,0,7.46,1.95l5.56-3.34C676.32,494,677.51,490.26,675.81,487.63Z" style="fill: rgb(99, 77, 69);"/>
  <path class="cls-17" d="M795.15,468.05c-10.39,0-10.4,16.14,0,16.14S805.56,468.05,795.15,468.05Z" style="fill: rgb(99, 77, 69);"/>
  <path class="cls-17" d="M673.54,348.34a6.53,6.53,0,0,0-3-3.86,7.47,7.47,0,0,0-5-.65c-2.75.4-4.19,2.92-5.62,5L657.79,352a6.87,6.87,0,0,0,2.46,9.39,7,7,0,0,0,9.39-2.46l2.08-3.24c.33-.51.68-1,1-1.54A7.44,7.44,0,0,0,673.54,348.34Z" style="fill: rgb(99, 77, 69);"/>
  <path class="cls-17" d="M761.72,340.92a7.76,7.76,0,0,0-2.65-2.63,2.41,2.41,0,0,0-.21-.24,6.05,6.05,0,0,0-4.13-1.64,7.09,7.09,0,0,0-4.82,2,7.52,7.52,0,0,0-1.8,7.26,8.53,8.53,0,0,0,3.8,5c3.94,2.5,9.34,0,10.53-4.29A7.44,7.44,0,0,0,761.72,340.92Z" style="fill: rgb(99, 77, 69);"/>
  <path class="cls-17" d="M819,342.43l-1.65-1.28a8.21,8.21,0,0,0-4.13-1.12l-1.62-.1a6.26,6.26,0,0,0-3.19.72A7.44,7.44,0,0,0,804,345a6.24,6.24,0,0,0-.72,3.19,8.36,8.36,0,0,0,2.43,5.85,8.21,8.21,0,0,0,5.85,2.42l1.62-.1a8.38,8.38,0,0,0,8.17-8.17A8.2,8.2,0,0,0,819,342.43Z" style="fill: rgb(99, 77, 69);"/>
  <path class="cls-17" d="M762.73,411.3c-9.23,0-9.24,14.33,0,14.33S772,411.3,762.73,411.3Z" style="fill: rgb(99, 77, 69);"/>
  <path class="cls-17" d="M834.73,451.83l-.7.5c-4.28,3.05-4.28,8.5,0,11.55l.7.5c4.61,3.29,10.93-1.15,10.93-6.27S839.34,448.54,834.73,451.83Z" style="fill: rgb(99, 77, 69);"/>
  <path class="cls-17" d="M865,483.25c-.06-.16-.12-.33-.17-.49-.24-.55-.47-1.1-.7-1.64a5.07,5.07,0,0,0-1.77-1.93,3.41,3.41,0,0,0-1.52-.89,5.14,5.14,0,0,0-2.65-.59,8.1,8.1,0,0,0-3.47.94,5.14,5.14,0,0,0-1.93,1.77,5.09,5.09,0,0,0-1.23,2.34l-.18.49a7.06,7.06,0,0,0,0,3.76,7,7,0,0,0,1.82,3.11,7.06,7.06,0,0,0,10,0,7.06,7.06,0,0,0,1.81-6.87Z" style="fill: rgb(99, 77, 69);"/>
  <path class="cls-17" d="M915.86,443.33c-9.74,0-9.75,15.14,0,15.14S925.62,443.33,915.86,443.33Z" style="fill: rgb(99, 77, 69);"/>
  <path class="cls-17" d="M864.22,405.25l-1.2-.93a5.88,5.88,0,0,0-3-.81l-.9-.1a6,6,0,0,0-5.22,3,6.39,6.39,0,0,0-.85,3l.21,1.57c.2.5.41,1,.64,1.49a6,6,0,0,0,2.17,2.17,5.94,5.94,0,0,0,3.05.82l.9-.09a4.45,4.45,0,0,0,2.3-.52,4.5,4.5,0,0,0,1.91-1.23,5.94,5.94,0,0,0,0-8.42Z" style="fill: rgb(99, 77, 69);"/>
  <path class="cls-17" d="M835.16,405.14a5.93,5.93,0,0,0-.92-2.89,8,8,0,0,0-4.65-3.57,13.94,13.94,0,0,0-2.14-.29h-.14a17.19,17.19,0,0,0-2.14.29,6.57,6.57,0,0,0-1.95.82,10.81,10.81,0,0,0-1.74,1.35c-.17.17-1.14,1.43-1.27,1.64a17.08,17.08,0,0,0-.83,2,5.85,5.85,0,0,0-.14,3.13,5.69,5.69,0,0,0,.93,2.92l1.23,1.6a5.93,5.93,0,0,0,2.53,1.62,3.83,3.83,0,0,0,2,.54,6,6,0,0,0,3.14-.14l1.88-.79a8.25,8.25,0,0,0,1.12-.82,6.35,6.35,0,0,0,1-.84l1.22-1.57a5.9,5.9,0,0,0,.92-2.89A4,4,0,0,0,835.16,405.14Z" style="fill: rgb(99, 77, 69);"/>
  <path class="cls-17" d="M908.66,485.39a7.27,7.27,0,0,0-1-3.72,8,8,0,0,0-2.86-2.85,8.14,8.14,0,0,0-5.94-.77,8.27,8.27,0,0,0-5,3.87,8.3,8.3,0,0,0,4.94,12,8.73,8.73,0,0,0,4.16,0,7.33,7.33,0,0,0,5.15-5.15,8,8,0,0,0,.2-1.07A7.28,7.28,0,0,0,908.66,485.39Z" style="fill: rgb(99, 77, 69);"/>
  <path class="cls-17" d="M923.07,390.68c-10.26,0-10.28,15.94,0,15.94S933.35,390.68,923.07,390.68Z" style="fill: rgb(99, 77, 69);"/>
  <path class="cls-17" d="M880.38,344.6a6.07,6.07,0,0,0-3-5.14,5.91,5.91,0,0,0-6,0l-2.77,2a7.94,7.94,0,0,0-2.82,2.82,7.85,7.85,0,0,0-1.08,4,7.88,7.88,0,0,0,15.75,0Z" style="fill: rgb(99, 77, 69);"/>
  <path class="cls-17" d="M890.64,413.51c-8.7,0-8.72,13.52,0,13.52S899.36,413.51,890.64,413.51Z" style="fill: rgb(99, 77, 69);"/>
  <path class="cls-17" d="M953.39,484.94a4.93,4.93,0,0,0-.42-1.15,5.69,5.69,0,0,0-3.41-3.36,8.1,8.1,0,0,0-2.94-.65,5.27,5.27,0,0,0-2.71.61,5.21,5.21,0,0,0-2.26,1.45,7.24,7.24,0,0,0-2,5,5.26,5.26,0,0,0,.6,2.71,5.4,5.4,0,0,0,1.45,2.26,7,7,0,0,0,9.93,0l1.1-1.42a5.25,5.25,0,0,0,.83-2.61A5.33,5.33,0,0,0,953.39,484.94Z" style="fill: rgb(99, 77, 69);"/>
  <path class="cls-17" d="M1000.54,522c-8.18,0-8.2,12.72,0,12.72S1008.73,522,1000.54,522Z" style="fill: rgb(99, 77, 69);"/>
  <path class="cls-17" d="M989.73,434.91c-11.3,0-11.32,17.56,0,17.56S1001.05,434.91,989.73,434.91Z" style="fill: rgb(99, 77, 69);"/>
  <path class="cls-17" d="M1021.89,467.38a7.48,7.48,0,0,0-5.14-2.13,7.26,7.26,0,0,0-6.27,3.6l-.76,1.09a6.88,6.88,0,0,0-1.39,4.25,7,7,0,0,0,2,4.77,7.33,7.33,0,0,0,4.77,2,6.82,6.82,0,0,0,4.25-1.39l1.09-.76a7.23,7.23,0,0,0,3.6-6.27A7.59,7.59,0,0,0,1021.89,467.38Z" style="fill: rgb(99, 77, 69);"/>
  <path class="cls-17" d="M966.27,429.31a5.05,5.05,0,0,0-4.91-1.29l-1.46.58-1.06.45a3.32,3.32,0,0,0-1.24,1.14,4.26,4.26,0,0,0-1,2.69,5.28,5.28,0,0,0,.61,2.24,4.7,4.7,0,0,0,2.65,2l1.46.59a5.12,5.12,0,0,0,2.69,0,5,5,0,0,0,2.22-1.3,5,5,0,0,0,0-7.14Z" style="fill: rgb(99, 77, 69);"/>
  <path class="cls-17" d="M984.93,376.43a6,6,0,0,0-4.21-1.75l-1.58.21a6,6,0,0,0-2.63,1.54l-1.19,1a5.69,5.69,0,0,0-1,1,4.11,4.11,0,0,0-.87,1.5,3,3,0,0,0-.42,1.54,1.89,1.89,0,0,0-.09.94,4.41,4.41,0,0,0,.51,2.29,4.47,4.47,0,0,0,1.23,1.92l1.2.93a5.88,5.88,0,0,0,3,.81l.13,0,1.62-.22a7.2,7.2,0,0,0,1.61-.7,6.75,6.75,0,0,0,1.65-1.45l1-1.19a6.71,6.71,0,0,0,1.75-4.21A6,6,0,0,0,984.93,376.43Z" style="fill: rgb(99, 77, 69);"/>
  <path class="cls-17" d="M936.57,359.93a6.34,6.34,0,0,0-9,0,6.36,6.36,0,0,0,0,9,6.62,6.62,0,0,0,4.5,1.86,6.55,6.55,0,0,0,4.49-1.86,6.34,6.34,0,0,0,0-9Z" style="fill: rgb(99, 77, 69);"/>
  <path class="cls-17" d="M1080.5,434.72a5.39,5.39,0,0,0-1.81-2,5.33,5.33,0,0,0-2.41-1.26,20,20,0,0,0-3.14-.54,7.55,7.55,0,0,0-7.34,7.35,7.39,7.39,0,0,0,2.15,5.19,7.16,7.16,0,0,0,5.19,2.15,20,20,0,0,0,3.14-.53l1.69-.71a5.42,5.42,0,0,0,2-1.82,3.52,3.52,0,0,0,.91-1.56,5.31,5.31,0,0,0,.61-2.72A8.39,8.39,0,0,0,1080.5,434.72Z" style="fill: rgb(99, 77, 69);"/>
  <path class="cls-17" d="M1033.93,394.08a6.41,6.41,0,0,0-4.57-1.89l-1.26.1a4.82,4.82,0,0,0-2.45.55,4.72,4.72,0,0,0-2.05,1.31,6.5,6.5,0,0,0-1.86,4.5,6.41,6.41,0,0,0,1.86,4.5l1.29,1a6.44,6.44,0,0,0,3.21.87l1.26.09a7.26,7.26,0,0,0,4.57-1.89,6.47,6.47,0,0,0,0-9.14Z" style="fill: rgb(99, 77, 69);"/>
  <path class="cls-17" d="M1024,439.05h-1.62a4.79,4.79,0,0,0-3.28,1.36,4.66,4.66,0,0,0-1.36,3.28,4.72,4.72,0,0,0,4.64,4.64H1024a4.74,4.74,0,0,0,3.28-1.36,4.64,4.64,0,0,0-3.28-7.92Z" style="fill: rgb(99, 77, 69);"/>
  <path class="cls-17" d="M1096.41,540.84l-.8-.48a5.28,5.28,0,0,0-4.4-.82,5.18,5.18,0,0,0-2.71,1.88,5,5,0,0,0-1.13,3.16,5.31,5.31,0,0,0,3.22,4.78,5.21,5.21,0,0,0,5.08-.59l.74-.44A4.38,4.38,0,0,0,1096.41,540.84Z" style="fill: rgb(99, 77, 69);"/>
  <path class="cls-17" d="M1105,459.24c-10.13,0-10.14,15.74,0,15.74S1115.18,459.24,1105,459.24Z" style="fill: rgb(99, 77, 69);"/>
  <path class="cls-17" d="M1061.79,516.62c-5.84,0-5.85,9.08,0,9.08S1067.65,516.62,1061.79,516.62Z" style="fill: rgb(99, 77, 69);"/>
  <path class="cls-17" d="M1141.81,507.8l-.67-.4a6.36,6.36,0,0,0-2-.85,5.83,5.83,0,0,0-5.66,1.49,6.07,6.07,0,0,0-1.7,4.11,6,6,0,0,0,1.7,4.11,5.87,5.87,0,0,0,2.57,1.5,5.79,5.79,0,0,0,3.09,0,8.54,8.54,0,0,0,2.62-1.25A5.09,5.09,0,0,0,1141.81,507.8Z" style="fill: rgb(99, 77, 69);"/>
  <path class="cls-17" d="M1083,483.67l-1.48-.38a3.35,3.35,0,0,0-.8-.35,6.31,6.31,0,0,0-4.13-.32,6.3,6.3,0,0,0-.76,11.9,6.31,6.31,0,0,0,4.13.32l1.51-.63.06,0,1.47-.38a5.31,5.31,0,0,0,3.85-5.06A5.38,5.38,0,0,0,1083,483.67Z" style="fill: rgb(99, 77, 69);"/>
  <path class="cls-17" d="M1199.68,475.24a5.41,5.41,0,0,0-1.44-2.24,5.19,5.19,0,0,0-2.25-1.44,5.13,5.13,0,0,0-2.68-.6,7,7,0,0,0-4.92,2,6.93,6.93,0,0,0-2,4.92l.09,1.44a5.24,5.24,0,0,0,.6,2.65,7.05,7.05,0,0,0,6.27,4.22,6.94,6.94,0,0,0,4.86-2l1.07-1.39a6.82,6.82,0,0,0,.94-3.47c0-.48.06-1,.1-1.44A5.36,5.36,0,0,0,1199.68,475.24Z" style="fill: rgb(99, 77, 69);"/>
  <path class="cls-17" d="M1132.06,407.21c-7.54,0-7.55,11.71,0,11.71S1139.6,407.21,1132.06,407.21Z" style="fill: rgb(99, 77, 69);"/>
  <path class="cls-17" d="M1102.11,392.63a4.48,4.48,0,0,0-5.46-5.47h0a5.32,5.32,0,0,0-2,.18l-1.43.6a6.66,6.66,0,0,0-2.75,3.58l-.21,1.59a6.77,6.77,0,0,0,1.75,4.23l1.21.93a4.38,4.38,0,0,0,2.23.71,4.48,4.48,0,0,0,2.38-.1l1.43-.61a4.45,4.45,0,0,0,1.68-1.54,4.38,4.38,0,0,0,1.07-2,6.91,6.91,0,0,0,.17-2Z" style="fill: rgb(99, 77, 69);"/>
  <path class="cls-17" d="M1148.12,447.65a5.44,5.44,0,0,0-1.4-2.41,5.47,5.47,0,0,0-7.71,0,5.47,5.47,0,0,0-1.4,5.31l.27,1.54c.17.42.35.83.52,1.24a4,4,0,0,0,1.33,1.45,5,5,0,0,0,3.14,1.11,6.17,6.17,0,0,0,2.61-.71,5.12,5.12,0,0,0,2.37-3.09l.27-1.54A5.49,5.49,0,0,0,1148.12,447.65Z" style="fill: rgb(99, 77, 69);"/>
  <path class="cls-17" d="M1203.56,547.29a3.43,3.43,0,0,0-.47-1.71,5,5,0,0,0-1.39-2.17,8,8,0,0,0-3-1.74,4.93,4.93,0,0,0-2.69-.12,5,5,0,0,0-2.52.8l-1.3.74a11.24,11.24,0,0,0-1.28.88,7.2,7.2,0,0,0-2.25,2.93,3.69,3.69,0,0,0-.51,1.86c-.06.36-.1.73-.14,1.1a8,8,0,0,0,2.12,5.11l1.46,1.13a7.15,7.15,0,0,0,3.64,1,14.43,14.43,0,0,0,2.08-.27l1.75-.74,1.49-1.15a9,9,0,0,0,1.23-1.64c.08-.12.15-.25.22-.38l.74-1.3.69-1.62A5.13,5.13,0,0,0,1203.56,547.29Z" style="fill: rgb(99, 77, 69);"/>
  <path class="cls-17" d="M1146.47,553.83c-9,0-9,13.93,0,13.93S1155.45,553.83,1146.47,553.83Z" style="fill: rgb(99, 77, 69);"/>
  <path class="cls-17" d="M1228.58,592.19l-1.33-1a6.43,6.43,0,0,0-3.31-.9,7.31,7.31,0,0,0-4.76,1.19,6.22,6.22,0,0,0,0,10.74,7.8,7.8,0,0,0,2.19,1,6.57,6.57,0,0,0,2.57.18,7.37,7.37,0,0,0,4.64-1.92,6.57,6.57,0,0,0,0-9.28Z" style="fill: rgb(99, 77, 69);"/>
  <path class="cls-17" d="M1272.83,639.3a2.84,2.84,0,0,0-.39-1.45,4.41,4.41,0,0,0-1.19-1.85,7,7,0,0,0-2.54-1.48,6,6,0,0,0-4.44.58l-1.09.58a6.5,6.5,0,0,0-2.81,2.85c-.21.49-.41,1-.62,1.46a4.67,4.67,0,0,0-.11,2.43,3.07,3.07,0,0,0,.42,1.54,4.7,4.7,0,0,0,1.26,2,7.28,7.28,0,0,0,2.69,1.56,4.47,4.47,0,0,0,2.43.11,4.41,4.41,0,0,0,2.27-.72,6.6,6.6,0,0,0,2.86-2.82l.58-1.09.58-1.37A4.39,4.39,0,0,0,1272.83,639.3Z" style="fill: rgb(99, 77, 69);"/>
  <path class="cls-17" d="M1308.62,621.74c-2.73,0-2.74,4.23,0,4.23S1311.35,621.74,1308.62,621.74Z" style="fill: rgb(99, 77, 69);"/>
  <path class="cls-17" d="M1266.24,559.77a4.71,4.71,0,0,0-.76-2.37,7,7,0,0,0-.69-.91l-.11-.24a5.58,5.58,0,0,0-2-2,5.48,5.48,0,0,0-5.5,0,5.47,5.47,0,0,0-2,2l-.08.16a4.51,4.51,0,0,0-.73,1c-.21.5-.43,1-.64,1.52a7.09,7.09,0,0,0,.64,4.92l1,1.29A7.08,7.08,0,0,0,1260,567l1.7-.23a7.1,7.1,0,0,0,3.81-2.93l.65-1.53A4.87,4.87,0,0,0,1266.24,559.77Z" style="fill: rgb(99, 77, 69);"/>
  <path class="cls-17" d="M1313.79,598.48a5.63,5.63,0,0,0-1.35-2.58,5.77,5.77,0,0,0-2.12-1.95l-1.81-.76a5.75,5.75,0,0,0-3-.13,3.77,3.77,0,0,0-1.91.51,5.46,5.46,0,0,0-1.83,1,5.7,5.7,0,0,0-2,1.91,3.76,3.76,0,0,0-1,1.68,5.74,5.74,0,0,0-.66,3l.27,2,.77,1.82a5.82,5.82,0,0,0,2,2.15,5.72,5.72,0,0,0,2.6,1.36,8,8,0,0,0,4.36,0,12.89,12.89,0,0,0,2-.82,6.62,6.62,0,0,0,1.68-1.28,8.42,8.42,0,0,0,2.11-3.55A8.2,8.2,0,0,0,1313.79,598.48Z" style="fill: rgb(99, 77, 69);"/>
  <path class="cls-17" d="M1269.56,597.48a11.59,11.59,0,0,0-.76-1.9,6.82,6.82,0,0,0-3.62-2.79,4.59,4.59,0,0,0-2.41-.11,4.53,4.53,0,0,0-2.25.72,6.13,6.13,0,0,0-2.17,2.18,6.05,6.05,0,0,0,6.83,8.89,6.09,6.09,0,0,0,3.62-2.78A5.5,5.5,0,0,0,1269.56,597.48Z" style="fill: rgb(99, 77, 69);"/>
  <path class="cls-17" d="M1231.15,512.09c-9.35,0-9.37,14.54,0,14.54S1240.51,512.09,1231.15,512.09Z" style="fill: rgb(99, 77, 69);"/>
  <path class="cls-17" d="M1176.8,504a15.52,15.52,0,0,0-.64-1.59,3.89,3.89,0,0,0-1.28-1.39,5,5,0,0,0-7.29,1.39,5.22,5.22,0,0,0-.5,3.83,5,5,0,0,0,6.1,3.46,5,5,0,0,0,3-2.28A4.46,4.46,0,0,0,1176.8,504Z" style="fill: rgb(99, 77, 69);"/>
  <path class="cls-17" d="M1266.91,480.59a3.53,3.53,0,0,0-.48-1.79,5.36,5.36,0,0,0-1.46-2.27,8.47,8.47,0,0,0-3.12-1.82,5.41,5.41,0,0,0-2.82-.12,5.17,5.17,0,0,0-2.62.84l-1.18.78a12.09,12.09,0,0,0-2,1.46,8.22,8.22,0,0,0-2,3.58,7.32,7.32,0,0,0,9,9,8.19,8.19,0,0,0,3.59-2,12.71,12.71,0,0,0,1.46-2l.78-1.18c.24-.56.48-1.12.71-1.69A5.27,5.27,0,0,0,1266.91,480.59Z" style="fill: rgb(99, 77, 69);"/>
  <path class="cls-17" d="M1189.6,431.19a5,5,0,0,0-4.81-1.27l-1.52.35-1.1.46a3.46,3.46,0,0,0-1.28,1.18,4.3,4.3,0,0,0-1,2.77,5.27,5.27,0,0,0,.62,2.31,4.57,4.57,0,0,0,2.74,2.11l1.52.35a5,5,0,0,0,4.81-1.27,5.14,5.14,0,0,0,1.45-3.5A5.08,5.08,0,0,0,1189.6,431.19Z" style="fill: rgb(99, 77, 69);"/>
  <path class="cls-17" d="M1305.34,520.14a3.76,3.76,0,0,0-.53-1.93,5.62,5.62,0,0,0-1.58-2.47,9.11,9.11,0,0,0-3.39-2,5.75,5.75,0,0,0-3-.14,5.81,5.81,0,0,0-2.86.91l-2.07,1a8.43,8.43,0,0,0-4.2,7.31,8.85,8.85,0,0,0,2.48,6,9.46,9.46,0,0,0,6,2.48,8.48,8.48,0,0,0,7.32-4.2l1-2.08.77-1.83A5.8,5.8,0,0,0,1305.34,520.14Z" style="fill: rgb(99, 77, 69);"/>
  <path class="cls-17" d="M1366,553a9,9,0,0,0-2.34-4,9.45,9.45,0,0,0-6.42-2.66,10.06,10.06,0,0,0-6.42,2.66,9,9,0,0,0-2.34,4,9.2,9.2,0,0,0,0,4.83l.27,1.54c.3.71.59,1.41.89,2.11a6.72,6.72,0,0,0,2.26,2.47,4.46,4.46,0,0,0,1.95,1.13,6.7,6.7,0,0,0,3.39.76l2.34-.32,2.1-.88a6.67,6.67,0,0,0,2.47-2.27,6.59,6.59,0,0,0,1.58-3l.27-1.54A9.2,9.2,0,0,0,1366,553Z" style="fill: rgb(99, 77, 69);"/>
  <path class="cls-17" d="M1323.75,573.21a7.37,7.37,0,0,0-5-2.07,7.24,7.24,0,0,0-5,2.07,7.72,7.72,0,0,0-2.07,5,7.14,7.14,0,0,0,2.07,5,7.09,7.09,0,0,0,10,0,5.42,5.42,0,0,0,1.46-2.28,5.3,5.3,0,0,0,.6-2.72A7.13,7.13,0,0,0,1323.75,573.21Z" style="fill: rgb(99, 77, 69);"/>
  <path class="cls-17" d="M1350.05,650.92c-9.22,0-9.23,14.33,0,14.33S1359.29,650.92,1350.05,650.92Z" style="fill: rgb(99, 77, 69);"/>
  <path class="cls-17" d="M1297.47,653a6.12,6.12,0,0,0-4.17-1.72,5.89,5.89,0,0,0-5.89,5.88,6,6,0,0,0,1.73,4.17,5.9,5.9,0,0,0,8.33,0,5.9,5.9,0,0,0,0-8.33Z" style="fill: rgb(99, 77, 69);"/>
  <path class="cls-17" d="M1356.17,699.37c-.24-.4-.48-.8-.71-1.2a6.26,6.26,0,0,0-10.81,0l-.71,1.2a7.08,7.08,0,1,0,12.23,0Z" style="fill: rgb(99, 77, 69);"/>
  <path class="cls-17" d="M1396.89,657.64c-7.53,0-7.54,11.7,0,11.7S1404.44,657.64,1396.89,657.64Z" style="fill: rgb(99, 77, 69);"/>
  <path class="cls-17" d="M1431,615.78c0-.35-.11-.69-.17-1l-.72-1.71a5.5,5.5,0,0,0-1.85-2,3.61,3.61,0,0,0-1.58-.92,5.44,5.44,0,0,0-2.76-.62,8.66,8.66,0,0,0-3.62,1,5.5,5.5,0,0,0-2,1.85,5.39,5.39,0,0,0-1.28,2.43c-.06.35-.12.69-.17,1a8.29,8.29,0,0,0,0,4.08,13,13,0,0,0,.89,2,7.17,7.17,0,0,0,12.38,0,10.24,10.24,0,0,0,.89-2A8.06,8.06,0,0,0,1431,615.78Z" style="fill: rgb(99, 77, 69);"/>
  <path class="cls-17" d="M1390.61,600.49a6.71,6.71,0,0,0-4.58-4.58l-1.36-.44a5.85,5.85,0,0,0-3.34-.07,5.64,5.64,0,0,0-2.49,1.39,6,6,0,0,0-1.34,5.76c.14.48.3,1,.46,1.43a6.71,6.71,0,0,0,4.58,4.58,6.57,6.57,0,0,0,8.07-8.07Z" style="fill: rgb(99, 77, 69);"/>
  <path class="cls-17" d="M1321.23,502.39c-7.93,0-7.94,12.32,0,12.32S1329.16,502.39,1321.23,502.39Z" style="fill: rgb(99, 77, 69);"/>
  <path class="cls-17" d="M1249.16,453.15c-8.7,0-8.71,13.52,0,13.52S1257.88,453.15,1249.16,453.15Z" style="fill: rgb(99, 77, 69);"/>
  <path class="cls-2" d="M715.17,447.68q2.05-.19,4.1-3a12.8,12.8,0,0,0,2.43-5.7l10,2.91a36.53,36.53,0,0,1-8.34,14.65q-4.89,5-10.47,5.58a10,10,0,0,1-9-3.92q-3.95-4.75-4.75-13a58.83,58.83,0,0,1,.61-16.21,50.69,50.69,0,0,1,4.76-14.43,34.69,34.69,0,0,1,8.43-10.8,20.65,20.65,0,0,1,11.57-4.95,9.43,9.43,0,0,1,7.45,2.51,12.62,12.62,0,0,1,3.71,8.33l.11,1.07a7.5,7.5,0,0,1,0,1.07l-10.71,4c-.79-1.3-1.63-1.91-2.54-1.82a4.1,4.1,0,0,0-2.67,1.84,21.22,21.22,0,0,0-2.52,4.3,48.81,48.81,0,0,0-2.21,5.81,66.09,66.09,0,0,0-1.69,6.42,37.34,37.34,0,0,0-1.22,11.34C712.49,446.52,713.48,447.84,715.17,447.68Z" style="fill: rgb(255, 255, 255);"/>
  <path class="cls-2" d="M757.46,457.34q-7.59-22-8-25.06l-1.06.38q-1.86,15.3-2.75,23.2l-13.47,4.3q6.26-41.88,7.18-59.36a72.1,72.1,0,0,1,21.24-4.16q8.88-.5,10.88,5.59a18.74,18.74,0,0,1,.75,4.66,18,18,0,0,1-.81,6.12A28.44,28.44,0,0,1,759,429.18q3.59,6.74,6.45,12.73T770.29,452Zm-1.89-48.69-3.62.28-2,13.57q3.28-.51,8.08-4.66,5-4.24,4.83-6.79c-.09-1.59-1.65-2.42-4.68-2.47C757.33,408.58,756.45,408.6,755.57,408.65Z" style="fill: rgb(255, 255, 255);"/>
  <path class="cls-2" d="M779.14,397.87c1.21-.13,2.62-.28,4.24-.47s3.21-.36,4.78-.52l4.9-.53q-2,10.17-3.15,16.13T788.06,422c-.46,2.37-.87,4.54-1.22,6.53q-1.23,6.28-1.62,8.18a46.11,46.11,0,0,0-1.13,7.36,3.84,3.84,0,0,0,.74,2.5,2.3,2.3,0,0,0,1.9.84,2.73,2.73,0,0,0,2.13-1.18,10.25,10.25,0,0,0,1.53-2.75,18.12,18.12,0,0,0,.9-3.22c.2-1.11.42-2.22.65-3.35s.54-2.7.93-4.72.76-4.1,1.14-6.28.78-4.39,1.19-6.65q1.6-8.69,3.72-22l12.77-1-.38,2.15q-.91,5.21-2,12t-2,11.78q-2.37,12.9-3.53,18.31a27.73,27.73,0,0,1-3.3,8.83,22.27,22.27,0,0,1-5,5.68,20.78,20.78,0,0,1-12.72,4.3A12.18,12.18,0,0,1,775,457a9.61,9.61,0,0,1-3.74-7.78c0-.22,0-.44,0-.66s.05-1,.17-2.23.41-3.54.85-6.82.94-6.69,1.47-10.24,1.09-7.12,1.7-10.7,1.17-6.84,1.68-9.76C778.27,402.5,778.94,398.86,779.14,397.87Z" style="fill: rgb(255, 255, 255);"/>
  <path class="cls-2" d="M835.6,415.24a14.45,14.45,0,0,0,.51-3.46,4.55,4.55,0,0,0-.83-2.95,2.58,2.58,0,0,0-1.91-1.16,4.43,4.43,0,0,0-2,.44,11,11,0,0,0-2,1.27,5.33,5.33,0,0,0-2.41,4A5.23,5.23,0,0,0,828,417a13.9,13.9,0,0,0,2.78,2.59q1.65,1.2,3.6,2.49a17.63,17.63,0,0,1,3.63,3.23q3.82,4.71,3.63,12.38a19.52,19.52,0,0,1-7.16,15.07q-6.59,5.61-16.39,5.34-7.24-.18-13.07-7.93L811.58,438a10.65,10.65,0,0,0,4.34,4.32c2.16,1.37,3.79,2.08,4.89,2.11a10.22,10.22,0,0,0,2.77-.26,6.49,6.49,0,0,0,2-.94,4.31,4.31,0,0,0,2.15-3.53,6.17,6.17,0,0,0-1.22-3.87,19.42,19.42,0,0,0-3.16-3.38c-1.27-1.07-2.64-2.17-4.12-3.28a36.19,36.19,0,0,1-4.08-3.53q-4.5-4.25-4.38-8.78a14.31,14.31,0,0,1,2.81-8.25,26,26,0,0,1,6.68-6.38,33.94,33.94,0,0,1,8.69-4.15,25.13,25.13,0,0,1,7.91-1.4,19.61,19.61,0,0,1,5.22.72,10.28,10.28,0,0,1,3.46,1.82q3.15,2.73,3,7.83a13.25,13.25,0,0,1-.27,2.39c-.16.76-.3,1.61-.44,2.54Z" style="fill: rgb(255, 255, 255);"/>
  <path class="cls-2" d="M851.27,409.54l1.11-10.75c2.84.41,5.71.7,8.62.89a178.71,178.71,0,0,0,22.55.05l-1.2,4.47c-.36,1.24-.7,2.53-1,3.85s-.65,2.48-.93,3.46a26.47,26.47,0,0,1-3.83.45c-1.27.06-2.51.16-3.73.3q-1.89,6.24-4,15.52-4.64,20.52-6.56,29.9L847,459.09q8.68-30.84,12.13-48.38a23.85,23.85,0,0,0-3.94-.42A12.21,12.21,0,0,1,851.27,409.54Z" style="fill: rgb(255, 255, 255);"/>
  <path class="cls-2" d="M660.22,901.31a48.7,48.7,0,0,1,2.11,11,54.31,54.31,0,0,1-.21,11.87,47.37,47.37,0,0,1-2.58,10.49,43.46,43.46,0,0,1-4.32,8.63q-5.18,7.77-11.59,9.89a10.85,10.85,0,0,1-9.82-1.11q-4.87-3.17-7.58-11.39a60.44,60.44,0,0,1,3-41.45q4.86-9.75,12.85-12.39,6.57-2.16,11.38,2.16Q657.33,892.54,660.22,901.31Zm-9.5,8.59q-2.13-6.49-5.9-5.26-4.77,1.58-7.06,7.54a34.54,34.54,0,0,0-1.87,12,34.06,34.06,0,0,0,1.58,10.59,5.35,5.35,0,0,0,4.21,3.82,3.2,3.2,0,0,0,2,0,9.81,9.81,0,0,0,5.57-4.57,22.06,22.06,0,0,0,2.66-7.6,35.16,35.16,0,0,0,.32-8.66A34.32,34.32,0,0,0,650.72,909.9Z" style="fill: rgb(255, 255, 255);"/>
  <path class="cls-2" d="M664.74,884.07l4-1.37c1.53-.53,3.05-1.05,4.55-1.54s3-1,4.67-1.57c.15,6.91.29,12.39.39,16.43s.19,7.27.25,9.68.13,4.63.21,6.64q.15,6.4.18,8.35a47.08,47.08,0,0,0,.48,7.42,3.92,3.92,0,0,0,1.26,2.29,2.33,2.33,0,0,0,2,.41,2.76,2.76,0,0,0,1.83-1.62,10.49,10.49,0,0,0,.9-3,18.66,18.66,0,0,0,.18-3.34c0-1.12-.06-2.26-.08-3.41s-.06-2.76-.11-4.8-.14-4.18-.24-6.39-.19-4.46-.27-6.75q-.3-8.82-1.1-22.27l12.25-3.74.09,2.19q.22,5.28.62,12.17t.57,11.94q.46,13.11.49,18.65a27.37,27.37,0,0,1-1.31,9.33,22.28,22.28,0,0,1-3.65,6.62,20.82,20.82,0,0,1-11.5,6.94,12.23,12.23,0,0,1-8-.65,9.64,9.64,0,0,1-5.33-6.79l-.15-.65c-.05-.21-.15-1-.31-2.21s-.36-3.54-.63-6.84-.53-6.74-.78-10.32-.46-7.19-.64-10.82-.33-6.92-.47-9.88C664.88,888.78,664.75,885.09,664.74,884.07Z" style="fill: rgb(255, 255, 255);"/>
  <path class="cls-2" d="M701.91,886.85l-1.27-10.73q4.27-.35,8.6-1a177.69,177.69,0,0,0,22-4.89l-.19,4.62c-.07,1.29-.12,2.62-.16,4s-.08,2.56-.14,3.57a26.27,26.27,0,0,1-3.64,1.28c-1.23.34-2.42.71-3.58,1.11q-.48,6.51-.48,16,0,21,.16,30.61l-14.61,4.73q1.71-32,1.22-49.86a23.54,23.54,0,0,0-3.93.45A12.09,12.09,0,0,1,701.91,886.85Z" style="fill: rgb(255, 255, 255);"/>
  <path class="cls-2" d="M731.17,932.61l5.61-60.77,26.4-4.7c-.27,1.29-.49,2.54-.65,3.74s-.34,2.39-.51,3.57-.3,2.2-.38,3.09c-1.63.32-3.87.6-6.71.86l-5.67.51-1.59,15.38q4.49-.66,7.52-1c2-.24,3.33-.41,3.93-.52-.08,1.6-.14,3.17-.2,4.69s-.15,3.09-.28,4.7c-.6.11-1.52.24-2.78.38s-2.57.3-3.93.48l-4.58.58-1.48,15.77,12.06-3.07,0,9.68Z" style="fill: rgb(255, 255, 255);"/>
  <path class="cls-2" d="M783.94,928.15q-6.72-22.3-7-25.36l-1.07.35q-2.48,15.21-3.66,23.06L758.58,930q7.88-41.61,9.49-59a72.27,72.27,0,0,1,21.39-3.32q8.89-.15,10.65,6a18.94,18.94,0,0,1,.57,4.69,18.35,18.35,0,0,1-1,6.08,28.49,28.49,0,0,1-13,15.67q3.33,6.87,5.95,13T797,923.32Zm0-48.73-3.62.14L777.84,893q3.28-.37,8.25-4.34,5.13-4,5.09-6.6c0-1.59-1.55-2.47-4.58-2.64C785.72,879.42,784.84,879.41,784,879.42Z" style="fill: rgb(255, 255, 255);"/>
  <path class="cls-2" d="M831.14,917.93c1.37.14,2.9-.56,4.61-2.1a12.75,12.75,0,0,0,3.49-5.12l9.21,4.82a36.47,36.47,0,0,1-11.05,12.73q-5.79,4-11.37,3.41a10,10,0,0,1-8-5.61q-2.94-5.43-2.1-13.72a59.09,59.09,0,0,1,3.78-15.78,51.38,51.38,0,0,1,7.5-13.21,34.87,34.87,0,0,1,10.39-8.94,20.69,20.69,0,0,1,12.32-2.57,9.4,9.4,0,0,1,6.81,3.92,12.63,12.63,0,0,1,2,8.9l-.11,1.07a7.69,7.69,0,0,1-.19,1.06l-11.29,1.84q-.78-2.14-2.13-2.28a4.12,4.12,0,0,0-3,1.27,21.64,21.64,0,0,0-3.31,3.73,47.42,47.42,0,0,0-3.31,5.26q-1.62,2.94-2.92,6A37.78,37.78,0,0,0,829,913.45Q828.6,917.68,831.14,917.93Z" style="fill: rgb(255, 255, 255);"/>
  <path class="cls-2" d="M898.22,898.71a48.56,48.56,0,0,1-3.46,10.67,54,54,0,0,1-5.91,10.31,47,47,0,0,1-7.31,7.94,43.37,43.37,0,0,1-7.94,5.48q-8.28,4.32-14.92,3.08a10.87,10.87,0,0,1-8.08-5.7q-2.73-5.13-1.14-13.63A60.37,60.37,0,0,1,872.07,882q9-6.21,17.23-4.67,6.81,1.27,8.94,7.37Q899.92,889.64,898.22,898.71Zm-12.46,2.95q1.26-6.72-2.63-7.45-4.95-.93-9.82,3.2a37.82,37.82,0,0,0-11.14,19.64,5.39,5.39,0,0,0,1.85,5.38,3.19,3.19,0,0,0,1.76.91,9.82,9.82,0,0,0,7.08-1.31,22.18,22.18,0,0,0,6-5.39,34.77,34.77,0,0,0,4.45-7.43A33.7,33.7,0,0,0,885.76,901.66Z" style="fill: rgb(255, 255, 255);"/>
  <path class="cls-2" d="M908.68,946.24q0-23.31.55-26.31l-1.13,0q-6.72,13.86-10.11,21l-14.14-.29q19.49-37.61,26-53.84a72.26,72.26,0,0,1,21.44,3q8.57,2.4,8.48,8.81a19,19,0,0,1-.79,4.66,18.35,18.35,0,0,1-2.75,5.52,28.52,28.52,0,0,1-17,11.29q1.23,7.53,2,14.13l1.29,11.11Zm14-46.68-3.51-.9-6.26,12.2q3.27.57,9.16-1.8c4-1.6,6.3-3.22,6.76-4.86s-.78-2.82-3.63-3.85C924.35,900.06,923.51,899.8,922.66,899.56Z" style="fill: rgb(255, 255, 255);"/>
  <path class="cls-2" d="M919.33,950.88l30.89-52.64,25.89,7c-.79,1.06-1.52,2.1-2.18,3.11l-2,3c-.66,1-1.21,1.87-1.66,2.64q-2.41-.62-6.44-2.08l-5.35-1.94-8,13.24q4.35,1.32,7.24,2.28t3.78,1.2c-.76,1.42-1.48,2.81-2.18,4.17s-1.44,2.73-2.25,4.14c-.58-.16-1.48-.44-2.67-.84s-2.46-.82-3.76-1.24l-4.4-1.42-8,13.66,12.22,2.33-4.07,8.79Z" style="fill: rgb(255, 255, 255);"/>
  <path class="cls-2" d="M750.49,1056.32q-9.39,47.82-11.46,59.53a73.44,73.44,0,0,0-8,.74q-5.68.75-5.85.82,2.64-9.56,4.87-20.85,5.1-25.82,7.25-38.18Z" style="fill: rgb(255, 255, 255);"/>
  <path class="cls-2" d="M778.44,1112.88a53.48,53.48,0,0,0-6.8,1.4c-3.87.94-6.2,1.54-7,1.82q-.9-11.05-1.52-16.12c-.41-3.38-.73-5.93-.95-7.63-.22-2.36-.61-5.22-1.15-8.57q-.25,1.56-.66,3.75c-.28,1.45-.55,3-.83,4.74q-1.32,7.9-4.12,22.75l-12.37,2.89q9.15-45.6,10.89-61.59c1.75-.11,3.4-.23,4.94-.37s3.08-.25,4.62-.33,2.89-.18,4-.29q1.07,6.51,1.73,10.76t1.11,7c.31,1.81.59,3.57.87,5.27q.83,5,1.73,8.91c.22-1.16.47-2.5.74-4s.58-3.18.91-4.91.69-3.49,1.07-5.27.87-4.1,1.44-6.93l2.19-10.68,10.31-1.23Q780.59,1095.32,778.44,1112.88Z" style="fill: rgb(255, 255, 255);"/>
  <path class="cls-2" d="M816.7,1112.88a53.12,53.12,0,0,0-6.8,1.4c-3.88.94-6.2,1.54-7,1.82-.61-7.37-1.11-12.74-1.53-16.12s-.72-5.93-.94-7.63q-.33-3.54-1.16-8.57-.24,1.56-.66,3.75c-.27,1.45-.55,3-.82,4.74q-1.32,7.9-4.12,22.75l-12.37,2.89q9.15-45.6,10.88-61.59c1.76-.11,3.41-.23,4.95-.37s3.08-.25,4.62-.33,2.88-.18,4-.29q1.06,6.51,1.73,10.76t1.11,7l.87,5.27q.81,5,1.73,8.91c.22-1.16.46-2.5.74-4s.58-3.18.91-4.91.68-3.49,1.07-5.27.86-4.1,1.44-6.93l2.19-10.68,10.3-1.23Q818.84,1095.32,816.7,1112.88Z" style="fill: rgb(255, 255, 255);"/>
  <path class="cls-2" d="M819.75,1117.58l11-60,26.71-2.31c-.38,1.26-.71,2.49-1,3.67s-.55,2.35-.82,3.5-.5,2.17-.66,3c-1.65.17-3.91.25-6.76.25h-5.69l-3,15.17q4.53-.24,7.59-.33c2,0,3.35-.11,3.95-.16-.22,1.59-.42,3.14-.62,4.65s-.42,3.07-.7,4.66c-.6.06-1.54.1-2.8.13s-2.58.07-4,.12l-4.61.16-2.89,15.59,12.28-2-.82,9.64Z" style="fill: rgb(255, 255, 255);"/>
  <path class="cls-2" d="M873.59,1116.18q-6.35-22.42-6.6-25.48l-1.07.33q-2.71,15.18-4,23l-13.69,3.55q8.58-41.47,10.48-58.87a72.08,72.08,0,0,1,21.43-3q8.91,0,10.56,6.19a18.93,18.93,0,0,1,.49,4.7,18.18,18.18,0,0,1-1.15,6.06,28.17,28.17,0,0,1-3.14,6.22,28.62,28.62,0,0,1-10.14,9.24q3.22,6.91,5.73,13.06t4.25,10.35Zm.82-48.73-3.62.08L868.06,1081q3.3-.33,8.33-4.2c3.46-2.64,5.2-4.81,5.2-6.52s-1.52-2.5-4.54-2.72C876.17,1067.48,875.29,1067.45,874.41,1067.45Z" style="fill: rgb(255, 255, 255);"/>
  <path class="cls-2" d="M744.72,1184.53q2.06,0,4.37-2.55a12.77,12.77,0,0,0,3-5.45l9.65,3.88a36.7,36.7,0,0,1-9.73,13.77q-5.37,4.53-11,4.53a10,10,0,0,1-8.57-4.78q-3.47-5.12-3.47-13.44a58.88,58.88,0,0,1,2.19-16.08,50.93,50.93,0,0,1,6.14-13.89,35,35,0,0,1,9.44-9.93,20.65,20.65,0,0,1,12-3.8,9.43,9.43,0,0,1,7.17,3.22,12.69,12.69,0,0,1,2.89,8.66v1.07a6.91,6.91,0,0,1-.09,1.07l-11,3c-.66-1.37-1.45-2.06-2.35-2.06a4.13,4.13,0,0,0-2.85,1.56,22.49,22.49,0,0,0-2.93,4,50.73,50.73,0,0,0-2.76,5.57c-.88,2.06-1.65,4.14-2.31,6.22a37.37,37.37,0,0,0-2.3,11.18Q742.17,1184.53,744.72,1184.53Z" style="fill: rgb(255, 255, 255);"/>
  <path class="cls-2" d="M807.05,1154.77a48.85,48.85,0,0,1-1.44,11.13,54.21,54.21,0,0,1-3.92,11.21,47.34,47.34,0,0,1-5.73,9.15,43.24,43.24,0,0,1-6.8,6.85q-7.33,5.76-14.1,5.77a10.89,10.89,0,0,1-9-4.12q-3.63-4.54-3.63-13.2a60.39,60.39,0,0,1,15.83-38.42q7.66-7.74,16.08-7.75,6.92,0,10.14,5.61Q807.05,1145.53,807.05,1154.77ZM795.34,1160c0-4.56-1.31-6.84-4-6.84q-5,0-9.07,5a37.79,37.79,0,0,0-7.34,21.35,5.38,5.38,0,0,0,2.8,4.95,3.25,3.25,0,0,0,1.9.57,9.83,9.83,0,0,0,6.72-2.59,21.91,21.91,0,0,0,4.9-6.39,34.77,34.77,0,0,0,3-8.12A34.14,34.14,0,0,0,795.34,1160Z" style="fill: rgb(255, 255, 255);"/>
  <path class="cls-2" d="M827.17,1197.23q-6.34-22.43-6.6-25.48l-1.07.33q-2.71,15.18-4,23l-13.68,3.54q8.57-41.48,10.47-58.87a72.08,72.08,0,0,1,21.43-3q8.91,0,10.56,6.19a18.93,18.93,0,0,1,.49,4.7,18.18,18.18,0,0,1-1.15,6.06,28.17,28.17,0,0,1-3.14,6.22,28.54,28.54,0,0,1-10.14,9.24q3.23,6.91,5.73,13.06l4.25,10.35Zm.82-48.73-3.62.08L821.65,1162q3.29-.33,8.32-4.2,5.21-4,5.2-6.52,0-2.38-4.54-2.72C829.75,1148.53,828.87,1148.5,828,1148.5Z" style="fill: rgb(255, 255, 255);"/>
  <path class="cls-2" d="M839.62,1198.63l11-60,26.71-2.31c-.38,1.26-.71,2.49-1,3.67s-.55,2.35-.82,3.5-.5,2.17-.66,3c-1.65.17-3.91.25-6.76.25h-5.69l-3,15.17q4.53-.24,7.59-.33c2,0,3.35-.11,3.95-.16-.22,1.59-.42,3.14-.62,4.65s-.42,3.07-.7,4.66c-.6.06-1.54.1-2.8.13s-2.58.07-4,.12-2.91.11-4.61.16l-2.89,15.59,12.28-2-.82,9.65Z" style="fill: rgb(255, 255, 255);"/>
  <path class="cls-2" d="M590.32,578.66l4-1.5q2.28-.87,4.5-1.68l4.62-1.71q.55,10.35.9,16.41c.23,4,.41,7.26.55,9.67s.27,4.62.41,6.63q.35,6.39.44,8.33a47.5,47.5,0,0,0,.71,7.41,4,4,0,0,0,1.33,2.25,2.33,2.33,0,0,0,2.06.34,2.74,2.74,0,0,0,1.77-1.67,10.23,10.23,0,0,0,.81-3,19.74,19.74,0,0,0,.08-3.35c-.08-1.12-.14-2.26-.19-3.41s-.14-2.75-.26-4.8-.27-4.16-.43-6.37-.33-4.45-.49-6.74q-.57-8.81-1.78-22.23l12.13-4.11.16,2.18q.39,5.28,1,12.15t.93,11.92q.87,13.08,1.07,18.62a27.51,27.51,0,0,1-1,9.37,22.21,22.21,0,0,1-3.44,6.72,20.87,20.87,0,0,1-11.28,7.3,12.26,12.26,0,0,1-8-.4,9.64,9.64,0,0,1-5.53-6.63c-.06-.21-.11-.42-.17-.64s-.18-.94-.38-2.2-.48-3.53-.85-6.82-.73-6.71-1.09-10.29-.69-7.17-1-10.79-.54-6.91-.77-9.87Q590.4,580.18,590.32,578.66Z" style="fill: rgb(255, 255, 255);"/>
  <path class="cls-2" d="M628.38,630.69q.35-39.47-1-60.85,8.29-4.58,12.72-5.53a16.37,16.37,0,0,1,7.25-.26,12,12,0,0,1,4.87,2.45q3.63,3.18,5.18,10.35a24.49,24.49,0,0,1,.23,9.27,27.5,27.5,0,0,1-2.86,8.63,22.49,22.49,0,0,1-5.38,6.73,16.41,16.41,0,0,1-7.23,3.63l-.88.19q-.07,7.1.75,19.49Zm12-56q.42,12.13.68,21.53,2.74-1.35,4.39-5.84a18.47,18.47,0,0,0,.62-10.42,7,7,0,0,0-2.37-4.34A4.05,4.05,0,0,0,640.42,574.7Z" style="fill: rgb(255, 255, 255);"/>
  <path class="cls-2" d="M659.07,624q2.19-39.4,1.87-60.83,8.5-4.19,13-4.93a16.31,16.31,0,0,1,7.25.09,11.83,11.83,0,0,1,4.75,2.67q3.48,3.35,4.69,10.59a24.72,24.72,0,0,1-.2,9.27,27.65,27.65,0,0,1-3.27,8.48,22.32,22.32,0,0,1-5.69,6.47,16.32,16.32,0,0,1-7.39,3.28l-.89.15q-.4,7.1-.17,19.51Zm14.66-55.36q-.15,12.14-.33,21.54c1.87-.82,3.42-2.69,4.66-5.63a18.48,18.48,0,0,0,1.1-10.38,7,7,0,0,0-2.16-4.45A4,4,0,0,0,673.73,568.68Z" style="fill: rgb(255, 255, 255);"/>
  <path class="cls-2" d="M691,618.76l3.71-60.91,26.24-5.52c-.23,1.3-.41,2.55-.54,3.76s-.26,2.4-.39,3.58-.23,2.21-.29,3.11c-1.62.36-3.84.71-6.68,1.06l-5.65.69-1.11,15.41q4.47-.8,7.49-1.24c2-.3,3.31-.51,3.91-.64,0,1.61,0,3.17,0,4.7s-.06,3.09-.14,4.71c-.59.12-1.51.28-2.76.46s-2.56.38-3.92.6l-4.56.72-1,15.82,12-3.45.35,9.67Z" style="fill: rgb(255, 255, 255);"/>
  <path class="cls-2" d="M743.82,612.05q-8-21.9-8.44-24.93l-1,.41q-1.61,15.33-2.36,23.24l-13.39,4.53q5.53-42,6.16-59.48a72.59,72.59,0,0,1,21.16-4.52c5.93-.43,9.58,1.37,11,5.4a19.21,19.21,0,0,1,.84,4.65,18.61,18.61,0,0,1-.71,6.13,27.88,27.88,0,0,1-2.68,6.44,28.48,28.48,0,0,1-9.44,10q3.72,6.68,6.67,12.61t5,10Zm-2.73-48.66-3.61.35-1.73,13.6q3.25-.57,8-4.8c3.27-2.88,4.83-5.17,4.71-6.87s-1.69-2.39-4.72-2.38C742.85,563.3,742,563.33,741.09,563.39Z" style="fill: rgb(255, 255, 255);"/>
  <path class="cls-2" d="M801.43,582.69q9.87-25.32,13-31.71c2.81-.29,5.11-.55,6.9-.8l4.58-.63c1.27-.17,2.65-.39,4.14-.64q-4.41,23.85-7.69,60.16l-14.79,2.41a94.13,94.13,0,0,1,.89-9.55l1.3-9.87q.94-7.5,1.75-11.6h-.75c-.8,2.35-1.71,4.82-2.71,7.42L805,595.78l-3,7.91c-1,2.59-1.88,5.07-2.63,7.42-2,0-3.66.08-5,.17l-4.95.17,3.2-31.28-1.23,0c-.12.71-.43,1.93-.92,3.65s-1,3.7-1.66,5.91-1.28,4.52-2,6.9-1.41,4.58-2,6.61c-1.05,3.5-1.8,5.94-2.26,7.3l-13.94.7q14.06-40.37,19.12-59.08a73.2,73.2,0,0,0,8.83-.36c2.75-.29,5.73-.55,8.92-.77-.18,1.2-.38,2.58-.6,4.11s-.46,3.16-.73,4.86-.57,3.44-.87,5.22-.68,4.08-1.13,6.91-1,6.34-1.77,10.57Z" style="fill: rgb(255, 255, 255);"/>
  <path class="cls-2" d="M839.67,599.65l-4.33,11.81-4.44.23c-1.69.08-3.36.16-5,.22l-5.15.21q4.26-10.9,7.22-18.45c2-5,3.58-9.16,4.83-12.39s2.48-6.45,3.7-9.63,2.4-6.27,3.54-9.23,2.18-5.69,3.09-8.15a204.83,204.83,0,0,0,23.39-.79q-1.39,8.07-2.76,19.13-2.84,22-5,40.62c-1.66.15-3.29.27-4.86.36s-3.22.21-4.91.36l-4.62.37q1.53-7.82,2.69-14.09Zm2.64-8.23,6.12.07c0-.33.11-.88.25-1.67s.32-1.7.51-2.73q1.35-8.75,2.7-16.25l1.15-7.27-1.32,0Z" style="fill: rgb(255, 255, 255);"/>
  <path class="cls-2" d="M894.41,615.76a52,52,0,0,0-6.93.48q-5.94.62-7.14.87.57-11.07.63-16.18c0-3.4.07-6,.08-7.68.1-2.37.1-5.26,0-8.65-.3,1-.69,2.22-1.15,3.63s-.95,2.93-1.45,4.58q-2.37,7.68-7.12,22L858.69,616q15.15-44,19-59.59c1.75.13,3.41.22,4.95.29s3.08.17,4.62.29,2.88.21,4,.25c.13,4.4.22,8,.28,10.9s.12,5.21.18,7.05.1,3.62.15,5.35c.1,3.39.27,6.41.53,9,.37-1.11.79-2.41,1.27-3.9s1-3.07,1.56-4.74,1.14-3.37,1.76-5.09,1.41-3.94,2.36-6.67,2.14-6.16,3.59-10.29l10.37.15Q898.88,598.64,894.41,615.76Z" style="fill: rgb(255, 255, 255);"/>
  <path class="cls-2" d="M913.12,573.44l2.39-10.54c2.77.74,5.58,1.38,8.45,1.91a177,177,0,0,0,22.38,2.75l-1.72,4.29c-.5,1.19-1,2.43-1.49,3.71s-.93,2.38-1.33,3.31a26.17,26.17,0,0,1-3.86,0c-1.26-.1-2.51-.15-3.74-.16q-2.62,6-5.81,14.94-7,19.82-10.08,28.9L903,622.12q12.3-29.58,17.82-46.58a24.27,24.27,0,0,0-3.86-.89A12.12,12.12,0,0,1,913.12,573.44Z" style="fill: rgb(255, 255, 255);"/>
  <path class="cls-2" d="M943.32,618.21q3.1.46,8.57,1.71a51.3,51.3,0,0,0-.69,5.22c-.08,1.36-.16,2.36-.22,3a11.94,11.94,0,0,0-.08,1.29l-2.48-.65a95.65,95.65,0,0,0-17.14-2.33,49.3,49.3,0,0,0-5.28.15q5.34-14.43,12.28-30.09T950,570.18l14.91,1.39q-14.75,29.94-17.65,36.89T943.32,618.21Z" style="fill: rgb(255, 255, 255);"/>
  <path class="cls-2" d="M950,632l26.41-55,26.38,4.78c-.7,1.12-1.34,2.21-1.91,3.28l-1.72,3.17c-.57,1-1.05,2-1.44,2.77-1.63-.28-3.83-.79-6.58-1.54L985.68,588l-6.85,13.86q4.44.95,7.41,1.67c2,.48,3.26.77,3.86.88q-.95,2.22-1.82,4.33c-.58,1.41-1.22,2.85-1.9,4.31-.6-.1-1.51-.31-2.74-.61s-2.51-.61-3.85-.92l-4.5-1.05-6.87,14.28L980.79,626l-3.32,9.09Z" style="fill: rgb(255, 255, 255);"/>
  <path class="cls-18" d="M215.56,1169.82c5.6-36.4,40.6-40.6,40.6-40.6-39.7-8.3-40.6-40.6-40.6-40.6s-1,32.3-40.6,40.6C175,1129.22,210.06,1133.52,215.56,1169.82Z" style="fill: rgb(252, 175, 33);"/>
  <path class="cls-18" d="M1447.49,1066.48c5.6-36.4,40.6-40.6,40.6-40.6-39.7-8.3-40.6-40.6-40.6-40.6s-1,32.3-40.6,40.6C1406.89,1025.88,1441.89,1030.18,1447.49,1066.48Z" style="fill: rgb(252, 175, 33);"/>
  <path class="cls-18" d="M1255.51,1025.88c-17.9,0-17.9,27.8,0,27.8S1273.41,1025.88,1255.51,1025.88Z" style="fill: rgb(252, 175, 33);"/>
  <path class="cls-18" d="M1265.31,1245.65a10.3,10.3,0,0,0-4.5-2.9,9.85,9.85,0,0,0-5.3-1.2c-1.2.2-2.5.3-3.7.5a14,14,0,0,0-6.1,3.6,14.48,14.48,0,0,0-4.1,9.8v3.8a9.64,9.64,0,0,0,1.2,5.3,10.91,10.91,0,0,0,2.9,4.5,10.3,10.3,0,0,0,4.5,2.9,9.85,9.85,0,0,0,5.3,1.2c1.2-.2,2.5-.3,3.7-.5a14,14,0,0,0,6.1-3.6,14.48,14.48,0,0,0,4.1-9.8v-3.8a9.64,9.64,0,0,0-1.2-5.3A9.49,9.49,0,0,0,1265.31,1245.65Z" style="fill: rgb(252, 175, 33);"/>
  <path class="cls-18" d="M414.47,1160.53a10.3,10.3,0,0,0-4.5-2.9,9.85,9.85,0,0,0-5.3-1.2c-1.2.2-2.5.3-3.7.5a13.08,13.08,0,0,0-6.1,3.6,14.48,14.48,0,0,0-4.1,9.8v3.8a9.64,9.64,0,0,0,1.2,5.3,10.91,10.91,0,0,0,2.9,4.5,10.3,10.3,0,0,0,4.5,2.9,9.85,9.85,0,0,0,5.3,1.2c1.2-.2,2.5-.3,3.7-.5a13.08,13.08,0,0,0,6.1-3.6,14.48,14.48,0,0,0,4.1-9.8v-3.7a9.64,9.64,0,0,0-1.2-5.3A11.64,11.64,0,0,0,414.47,1160.53Z" style="fill: rgb(252, 175, 33);"/>
  <path class="cls-18" d="M147.31,816.08a14.48,14.48,0,0,0,9.8,4.1h3.8a10.2,10.2,0,0,0,5.4-1.2,10.91,10.91,0,0,0,4.5-2.9,10.3,10.3,0,0,0,2.9-4.5,9.85,9.85,0,0,0,1.2-5.3c-.2-1.2-.3-2.5-.5-3.7a13.08,13.08,0,0,0-3.6-6.1,14.48,14.48,0,0,0-9.8-4.1h-3.8a9.64,9.64,0,0,0-5.3,1.2,10.91,10.91,0,0,0-4.5,2.9,10.3,10.3,0,0,0-2.9,4.5,9.85,9.85,0,0,0-1.2,5.3c.2,1.2.3,2.5.5,3.7A12.9,12.9,0,0,0,147.31,816.08Z" style="fill: rgb(252, 175, 33);"/>
</svg>